HIERARCHY
ROOT Hips
{
 OFFSET 0.000000 0.000000 0.000000
 CHANNELS 6 Xposition Yposition Zposition Yrotation Xrotation Zrotation
 JOINT Chest
 {
  OFFSET 0.000000 9.581000 -0.001100
  CHANNELS 3 Yrotation Xrotation Zrotation
  JOINT Chest2
  {
   OFFSET 0.000000 9.561100 0.002200
   CHANNELS 3 Yrotation Xrotation Zrotation
   JOINT Chest3
   {
    OFFSET 0.000000 9.521100 0.000000
    CHANNELS 3 Yrotation Xrotation Zrotation
    JOINT Chest4
    {
     OFFSET 0.000000 9.511400 0.000000
     CHANNELS 3 Yrotation Xrotation Zrotation
     JOINT Neck
     {
      OFFSET 0.000000 14.375100 0.000000
      CHANNELS 3 Yrotation Xrotation Zrotation
      JOINT Head
      {
       OFFSET 0.000000 8.901200 0.004600
       CHANNELS 3 Yrotation Xrotation Zrotation
       End Site
       {
        OFFSET 0.000000 16.962200 0.002400
       }
      }
     }
     JOINT RightCollar
     {
      OFFSET -2.920100 9.518800 0.000000
      CHANNELS 3 Yrotation Xrotation Zrotation
      JOINT RightShoulder
      {
       OFFSET -13.664500 0.000000 0.000000
       CHANNELS 3 Yrotation Xrotation Zrotation
       JOINT RightElbow
       {
        OFFSET 0.000000 -29.999200 0.000000
        CHANNELS 3 Yrotation Xrotation Zrotation
        JOINT RightWrist
        {
         OFFSET 0.000000 -24.253600 0.000000
         CHANNELS 3 Yrotation Xrotation Zrotation
         End Site
         {
          OFFSET 0.000000 -17.918900 0.000000
         }
        }
       }
      }
     }
     JOINT LeftCollar
     {
      OFFSET 2.920100 9.518800 0.000000
      CHANNELS 3 Yrotation Xrotation Zrotation
      JOINT LeftShoulder
      {
       OFFSET 13.664500 0.000000 0.000000
       CHANNELS 3 Yrotation Xrotation Zrotation
       JOINT LeftElbow
       {
        OFFSET 0.000000 -29.999200 0.000000
        CHANNELS 3 Yrotation Xrotation Zrotation
        JOINT LeftWrist
        {
         OFFSET 0.000000 -24.253600 0.000000
         CHANNELS 3 Yrotation Xrotation Zrotation
         End Site
         {
          OFFSET 0.000000 -17.918900 0.000000
         }
        }
       }
      }
     }
    }
   }
  }
 }
 JOINT RightHip
 {
  OFFSET -7.797300 0.005300 0.000500
  CHANNELS 3 Yrotation Xrotation Zrotation
  JOINT RightKnee
  {
   OFFSET 0.000000 -40.663400 -0.000500
   CHANNELS 3 Yrotation Xrotation Zrotation
   JOINT RightAnkle
   {
    OFFSET 0.000000 -39.523700 -0.000900
    CHANNELS 3 Yrotation Xrotation Zrotation
    JOINT RightToe
    {
     OFFSET 0.000000 -6.418000 14.485300
     CHANNELS 3 Yrotation Xrotation Zrotation
     End Site
     {
      OFFSET 0.000000 -1.465200 6.326400
     }
    }
   }
  }
 }
 JOINT LeftHip
 {
  OFFSET 7.797300 0.005300 0.000500
  CHANNELS 3 Yrotation Xrotation Zrotation
  JOINT LeftKnee
  {
   OFFSET 0.000000 -40.663400 -0.000500
   CHANNELS 3 Yrotation Xrotation Zrotation
   JOINT LeftAnkle
   {
    OFFSET 0.000000 -39.523700 -0.000900
    CHANNELS 3 Yrotation Xrotation Zrotation
    JOINT LeftToe
    {
     OFFSET 0.000000 -6.418000 14.485300
     CHANNELS 3 Yrotation Xrotation Zrotation
     End Site
     {
      OFFSET 0.000000 -1.465200 6.326400
     }
    }
   }
  }
 }
}
MOTION
Frames: 5
Frame Time: 0.008333
-9.249311 126.450054 2.257119 169.907838 -28.996648 -2.942544 2.266014 19.732956 2.100175 0.238784 2.436109 0.213070 0.392296 4.006150 0.358123 1.896842 17.007132 1.754014 4.950708 18.653032 -2.827922 5.993608 -5.819848 -4.192117 -2.236420 -5.826112 -0.836804 4.929331 -9.293315 -6.265437 69.323111 -62.439030 -46.546711 5.803502 11.296418 -26.636506 -8.972969 -6.273633 2.608735 -7.885156 -17.635520 5.868754 -43.792349 -57.713983 32.014403 -27.461540 5.421931 16.392402 -6.866009 -53.641014 7.797705 -125.868368 84.980144 -128.037357 12.268196 -26.939714 2.295276 -0.004923 -0.004487 -0.002181 -4.105156 -45.983710 -2.520236 43.756399 83.407162 36.704565 1.842421 -10.198368 5.584518 -0.001027 -0.003681 -0.000455
-9.249748 126.449830 2.257183 169.916266 -28.994003 -2.945267 2.260588 19.729165 2.098328 0.236985 2.436984 0.213940 0.396114 3.995474 0.357340 1.896080 17.011148 1.753514 4.944862 18.656387 -2.831619 5.982357 -5.814081 -4.203145 -2.238252 -5.825059 -0.830541 4.927597 -9.281525 -6.263490 69.350327 -62.429814 -46.560052 5.794645 11.299888 -26.644631 -8.969240 -6.266967 2.610301 -7.887011 -17.629213 5.862749 -43.808634 -57.719531 32.029288 -27.460609 5.425096 16.390654 -6.856789 -53.640301 7.797386 -125.781652 84.971077 -127.947933 12.254487 -26.942365 2.296216 -0.001917 -0.003533 -0.000850 -4.104499 -45.978538 -2.527628 43.719453 83.400456 36.669200 1.841993 -10.200558 5.588480 -0.001749 0.000058 -0.000775
-9.249866 126.449790 2.257139 169.924033 -28.994330 -2.948398 2.258048 19.726766 2.099527 0.236052 2.435842 0.213805 0.394026 3.990417 0.358834 1.888036 16.996520 1.753632 4.944167 18.676644 -2.838398 5.984699 -5.810059 -4.203094 -2.222625 -5.803613 -0.832140 4.919044 -9.273303 -6.263159 69.375032 -62.425329 -46.577884 5.787652 11.306534 -26.649110 -8.952263 -6.244988 2.599964 -7.898481 -17.628609 5.864617 -43.805910 -57.720859 32.029691 -27.458174 5.425854 16.388824 -6.856591 -53.636962 7.797496 -125.747810 84.967433 -127.914618 12.253563 -26.944399 2.293894 -0.000852 -0.003604 -0.000378 -4.106027 -45.973717 -2.532405 43.706181 83.397383 36.659919 1.840813 -10.200429 5.588184 -0.000288 0.001573 -0.000128
-9.250231 126.449838 2.256982 169.933600 -28.996468 -2.949554 2.250881 19.722976 2.098330 0.237926 2.426579 0.215990 0.390751 3.996500 0.356896 1.883722 16.993264 1.753024 4.942904 18.681357 -2.841201 5.985192 -5.801710 -4.204764 -2.216419 -5.788897 -0.832495 4.919255 -9.270733 -6.262902 69.385443 -62.423178 -46.590842 5.791142 11.304230 -26.650806 -8.937638 -6.230299 2.595477 -7.904540 -17.626808 5.861259 -43.814415 -57.724094 32.039985 -27.454371 5.424652 16.387606 -6.850043 -53.630648 7.789733 -125.770380 84.969453 -127.939373 12.245825 -26.951166 2.296124 -0.001628 -0.002949 -0.000721 -4.107855 -45.968454 -2.538800 43.682179 83.397153 36.634953 1.842421 -10.199197 5.592706 -0.000399 0.001415 -0.000177
-9.250349 126.449866 2.257026 169.940175 -28.998856 -2.949640 2.247401 19.719478 2.098712 0.238131 2.426198 0.214891 0.390093 3.995255 0.356708 1.879789 16.992455 1.751968 4.940058 18.683207 -2.844621 5.982634 -5.798346 -4.218542 -2.212071 -5.776236 -0.830210 4.917488 -9.271049 -6.267105 69.392437 -62.424072 -46.600153 5.786229 11.300927 -26.648806 -8.912043 -6.208814 2.594494 -7.902483 -17.640421 5.851181 -43.841519 -57.726863 32.049934 -27.452089 5.423100 16.385380 -6.839464 -53.624117 7.781034 -125.720300 84.965414 -127.888047 12.245705 -26.958659 2.295155 -0.001529 -0.002111 -0.000677 -4.102330 -45.960118 -2.546037 43.608715 83.396651 36.564999 1.843364 -10.199375 5.595322 0.000892 0.002247 0.000395
